<?xml version="1.0" encoding="utf-8"?>
<!-- Generator: Fusion 360, Shaper Origin Export Add-In, Version 1.6.10  -->
<svg xmlns="http://www.w3.org/2000/svg" xmlns:xlink="http://www.w3.org/1999/xlink" xmlns:shaper="http://www.shapertools.com/namespaces/shaper" shaper:fusionaddin="version:1.6.10" width="10cm" height="10cm" version="1.1" x="0cm" y="0cm" viewBox="0 0 10 10" enable-background="new 0 0 10 10" xml:space="preserve"><path d="M-5,5 L5,5 5,-5 -5,-5 -5,5z" transform="matrix(1,0,0,-1,5,5)" fill="rgb(0,0,0)" shaper:cutDepth="0.0033" stroke-linecap="round" stroke-linejoin="round" /><path d="M-0.665,1.0185534 L-3.3164466,3.67 -0.815,3.67 -0.665,3.52 -0.665,1.0185534z" transform="matrix(1,0,0,-1,5,5)" fill="rgb(255,255,255)" stroke="rgb(0,0,0)" stroke-width="0.0010cm" stroke-linecap="round" stroke-linejoin="round" shaper:cutDepth="0.0033" /><path d="M3.67,-3.3164466 L0.8535534,-0.5 3.52,-0.5 3.67,-0.65 3.67,-3.3164466z" transform="matrix(1,0,0,-1,5,5)" fill="rgb(255,255,255)" stroke="rgb(0,0,0)" stroke-width="0.0010cm" stroke-linecap="round" stroke-linejoin="round" shaper:cutDepth="0.0033" /><path d="M3.3164466,3.67 L0.665,1.0185534 0.665,3.52 0.815,3.67 3.3164466,3.67z" transform="matrix(1,0,0,-1,5,5)" fill="rgb(255,255,255)" stroke="rgb(0,0,0)" stroke-width="0.0010cm" stroke-linecap="round" stroke-linejoin="round" shaper:cutDepth="0.0033" /><path d="M-0.8535534,-0.5 L-3.67,-3.3164466 -3.67,-0.65 -3.52,-0.5 -0.8535534,-0.5z" transform="matrix(1,0,0,-1,5,5)" fill="rgb(255,255,255)" stroke="rgb(0,0,0)" stroke-width="0.0010cm" stroke-linecap="round" stroke-linejoin="round" shaper:cutDepth="0.0033" /><path d="M-3.3164466,-3.67 L-0.665,-1.0185534 -0.665,-3.52 -0.815,-3.67 -3.3164466,-3.67z" transform="matrix(1,0,0,-1,5,5)" fill="rgb(255,255,255)" stroke="rgb(0,0,0)" stroke-width="0.0010cm" stroke-linecap="round" stroke-linejoin="round" shaper:cutDepth="0.0033" /><path d="M0.665,-1.0185534 L3.3164466,-3.67 0.815,-3.67 0.665,-3.52 0.665,-1.0185534z" transform="matrix(1,0,0,-1,5,5)" fill="rgb(255,255,255)" stroke="rgb(0,0,0)" stroke-width="0.0010cm" stroke-linecap="round" stroke-linejoin="round" shaper:cutDepth="0.0033" /><path d="M0.8535534,0.5 L3.67,3.3164466 3.67,0.65 3.52,0.5 0.8535534,0.5z" transform="matrix(1,0,0,-1,5,5)" fill="rgb(255,255,255)" stroke="rgb(0,0,0)" stroke-width="0.0010cm" stroke-linecap="round" stroke-linejoin="round" shaper:cutDepth="0.0033" /><path d="M-3.67,3.3164466 L-0.8535534,0.5 -3.52,0.5 -3.67,0.65 -3.67,3.3164466z" transform="matrix(1,0,0,-1,5,5)" fill="rgb(255,255,255)" stroke="rgb(0,0,0)" stroke-width="0.0010cm" stroke-linecap="round" stroke-linejoin="round" shaper:cutDepth="0.0033" /><path d="M-4.6625,-4.0188 a0.15,0.15 0 1,1 0.3,0 a0.15,0.15 0 1,1 -0.3,0z" transform="matrix(1,0,0,-1,5,5)" fill="rgb(255,255,255)" stroke="rgb(0,0,0)" stroke-width="0.0010cm" stroke-linecap="round" stroke-linejoin="round" shaper:cutDepth="0.0033" /><path d="M-4.17,3.67 L-4.17,1.5 -4.5,1.5 -4.5,3.67 -4.17,3.67z" transform="matrix(1,0,0,-1,5,5)" fill="rgb(255,255,255)" stroke="rgb(0,0,0)" stroke-width="0.0010cm" stroke-linecap="round" stroke-linejoin="round" shaper:cutDepth="0.0033" /><path d="M-4.5,-3.67 L-4.5,-1.5 -4.17,-1.5 -4.17,-3.67 -4.5,-3.67z" transform="matrix(1,0,0,-1,5,5)" fill="rgb(255,255,255)" stroke="rgb(0,0,0)" stroke-width="0.0010cm" stroke-linecap="round" stroke-linejoin="round" shaper:cutDepth="0.0033" /><path d="M-4.65,4.0188 a0.15,0.15 0 1,1 0.3,0 a0.15,0.15 0 1,1 -0.3,0z" transform="matrix(1,0,0,-1,5,5)" fill="rgb(255,255,255)" stroke="rgb(0,0,0)" stroke-width="0.0010cm" stroke-linecap="round" stroke-linejoin="round" shaper:cutDepth="0.0033" /><path d="M4.3625,4.0188 a0.15,0.15 0 1,1 0.3,0 a0.15,0.15 0 1,1 -0.3,0z" transform="matrix(1,0,0,-1,5,5)" fill="rgb(255,255,255)" stroke="rgb(0,0,0)" stroke-width="0.0010cm" stroke-linecap="round" stroke-linejoin="round" shaper:cutDepth="0.0033" /><path d="M4.3625,-4.0188 a0.15,0.15 0 1,1 0.3,0 a0.15,0.15 0 1,1 -0.3,0z" transform="matrix(1,0,0,-1,5,5)" fill="rgb(255,255,255)" stroke="rgb(0,0,0)" stroke-width="0.0010cm" stroke-linecap="round" stroke-linejoin="round" shaper:cutDepth="0.0033" /><path d="M0.165,3.67 L0.165,1.5 -0.165,1.5 -0.165,3.67 0.165,3.67z" transform="matrix(1,0,0,-1,5,5)" fill="rgb(255,255,255)" stroke="rgb(0,0,0)" stroke-width="0.0010cm" stroke-linecap="round" stroke-linejoin="round" shaper:cutDepth="0.0033" /><path d="M4.17,1.5 L4.17,3.67 4.5,3.67 4.5,1.5 4.17,1.5z" transform="matrix(1,0,0,-1,5,5)" fill="rgb(255,255,255)" stroke="rgb(0,0,0)" stroke-width="0.0010cm" stroke-linecap="round" stroke-linejoin="round" shaper:cutDepth="0.0033" /><path d="M-0.165,-3.67 L-0.165,-1.5 0.165,-1.5 0.165,-3.67 -0.165,-3.67z" transform="matrix(1,0,0,-1,5,5)" fill="rgb(255,255,255)" stroke="rgb(0,0,0)" stroke-width="0.0010cm" stroke-linecap="round" stroke-linejoin="round" shaper:cutDepth="0.0033" /><path d="M4.5,-3.67 L4.17,-3.67 4.17,-1.5 4.5,-1.5 4.5,-3.67z" transform="matrix(1,0,0,-1,5,5)" fill="rgb(255,255,255)" stroke="rgb(0,0,0)" stroke-width="0.0010cm" stroke-linecap="round" stroke-linejoin="round" shaper:cutDepth="0.0033" /></svg>