<?xml version="1.0" encoding="utf-8"?>
<!-- Generator: Fusion 360, Shaper Origin Export Add-In, Version 1.6.10  -->
<svg xmlns="http://www.w3.org/2000/svg" xmlns:xlink="http://www.w3.org/1999/xlink" xmlns:shaper="http://www.shapertools.com/namespaces/shaper" shaper:fusionaddin="version:1.6.10" width="10cm" height="10cm" version="1.1" x="0cm" y="0cm" viewBox="0 0 10 10" enable-background="new 0 0 10 10" xml:space="preserve"><path d="M-1.5,6.155 L-1.5,5.815 1.5,5.815 1.5,6.155 3.66,6.155 3.66,4.815 5,4.815 5,2.655 4.66,2.655 4.66,-0.345 5,-0.345 5,-2.505 3.66,-2.505 3.66,-3.845 1.5,-3.845 1.5,-3.505 -1.5,-3.505 -1.5,-3.845 -3.66,-3.845 -3.66,-2.505 -5,-2.505 -5,-0.345 -4.66,-0.345 -4.66,2.655 -5,2.655 -5,4.815 -3.66,4.815 -3.66,6.155 -1.5,6.155z" transform="matrix(1,0,0,-1,5,6.155)" fill="rgb(0,0,0)" shaper:cutDepth="0.0033" stroke-linecap="round" stroke-linejoin="round" /><path d="M-3.3367767,4.1382233 L-1.5,2.3014466 -1.5,1.655 -1.75,1.405 -3.41,1.405 -3.66,1.655 -3.66,3.815 -3.3367767,4.1382233z" transform="matrix(1,0,0,-1,5,6.155)" fill="rgb(255,255,255)" stroke="rgb(0,0,0)" stroke-width="0.0010cm" stroke-linecap="round" stroke-linejoin="round" shaper:cutDepth="0.0033" /><path d="M-1.5,0.0085534 L-3.3367767,-1.8282233 -3.66,-1.505 -3.66,0.655 -3.41,0.905 -1.75,0.905 -1.5,0.655 -1.5,0.0085534z" transform="matrix(1,0,0,-1,5,6.155)" fill="rgb(255,255,255)" stroke="rgb(0,0,0)" stroke-width="0.0010cm" stroke-linecap="round" stroke-linejoin="round" shaper:cutDepth="0.0033" /><path d="M2.9832233,4.4917767 L1.1464466,2.655 0.5,2.655 0.25,2.905 0.25,4.565 0.5,4.815 2.66,4.815 2.9832233,4.4917767z" transform="matrix(1,0,0,-1,5,6.155)" fill="rgb(255,255,255)" stroke="rgb(0,0,0)" stroke-width="0.0010cm" stroke-linecap="round" stroke-linejoin="round" shaper:cutDepth="0.0033" /><path d="M-1.1464466,2.655 L-2.9832233,4.4917767 -2.66,4.815 -0.5,4.815 -0.25,4.565 -0.25,2.905 -0.5,2.655 -1.1464466,2.655z" transform="matrix(1,0,0,-1,5,6.155)" fill="rgb(255,255,255)" stroke="rgb(0,0,0)" stroke-width="0.0010cm" stroke-linecap="round" stroke-linejoin="round" shaper:cutDepth="0.0033" /><path d="M-0.275,2.205 a0.125,0.125 0 1,1 0.25,0 a0.125,0.125 0 1,1 -0.25,0z" transform="matrix(1,0,0,-1,5,6.155)" fill="rgb(255,255,255)" stroke="rgb(0,0,0)" stroke-width="0.0010cm" stroke-linecap="round" stroke-linejoin="round" shaper:cutDepth="0.0033" /><path d="M0.925,0.105 a0.125,0.125 0 1,1 0.25,0 a0.125,0.125 0 1,1 -0.25,0z" transform="matrix(1,0,0,-1,5,6.155)" fill="rgb(255,255,255)" stroke="rgb(0,0,0)" stroke-width="0.0010cm" stroke-linecap="round" stroke-linejoin="round" shaper:cutDepth="0.0033" /><path d="M2.66,-2.505 L0.5,-2.505 0.25,-2.255 0.25,-0.595 0.5,-0.345 1.1464466,-0.345 2.9832233,-2.1817767 2.66,-2.505z" transform="matrix(1,0,0,-1,5,6.155)" fill="rgb(255,255,255)" stroke="rgb(0,0,0)" stroke-width="0.0010cm" stroke-linecap="round" stroke-linejoin="round" shaper:cutDepth="0.0033" /><path d="M1.5,2.3014466 L3.3367767,4.1382233 3.66,3.815 3.66,1.655 3.41,1.405 1.75,1.405 1.5,1.655 1.5,2.3014466z" transform="matrix(1,0,0,-1,5,6.155)" fill="rgb(255,255,255)" stroke="rgb(0,0,0)" stroke-width="0.0010cm" stroke-linecap="round" stroke-linejoin="round" shaper:cutDepth="0.0033" /><path d="M3.66,-1.505 L3.3367767,-1.8282233 1.5,0.0085534 1.5,0.655 1.75,0.905 3.41,0.905 3.66,0.655 3.66,-1.505z" transform="matrix(1,0,0,-1,5,6.155)" fill="rgb(255,255,255)" stroke="rgb(0,0,0)" stroke-width="0.0010cm" stroke-linecap="round" stroke-linejoin="round" shaper:cutDepth="0.0033" /><path d="M1.25,0.455 A0.15,0.15 0 0,0 1.1,0.305 L-0.2,0.305 A0.15,0.15 90 0,1 -0.35,0.155 L-0.35,0.055 A0.15,0.15 0 0,0 -0.5,-0.095 L-1.1,-0.095 A0.15,0.15 270 0,0 -1.25,0.055 L-1.25,2.255 A0.15,0.15 180 0,0 -1.1,2.405 L-0.5,2.405 A0.15,0.15 90 0,0 -0.35,2.255 L-0.35,2.155 A0.15,0.15 180 0,1 -0.2,2.005 L1.1,2.005 A0.15,0.15 90 0,0 1.25,1.855 L1.25,0.455z" transform="matrix(1,0,0,-1,5,6.155)" fill="rgb(255,255,255)" stroke="rgb(0,0,0)" stroke-width="0.0010cm" stroke-linecap="round" stroke-linejoin="round" shaper:cutDepth="0.0033" /><path d="M-0.275,0.105 a0.125,0.125 0 1,1 0.25,0 a0.125,0.125 0 1,1 -0.25,0z" transform="matrix(1,0,0,-1,5,6.155)" fill="rgb(255,255,255)" stroke="rgb(0,0,0)" stroke-width="0.0010cm" stroke-linecap="round" stroke-linejoin="round" shaper:cutDepth="0.0033" /><path d="M0.925,2.205 a0.125,0.125 0 1,1 0.25,0 a0.125,0.125 0 1,1 -0.25,0z" transform="matrix(1,0,0,-1,5,6.155)" fill="rgb(255,255,255)" stroke="rgb(0,0,0)" stroke-width="0.0010cm" stroke-linecap="round" stroke-linejoin="round" shaper:cutDepth="0.0033" /><path d="M-1.1464466,-0.345 L-0.5,-0.345 -0.25,-0.595 -0.25,-2.255 -0.5,-2.505 -2.66,-2.505 -2.9832233,-2.1817767 -1.1464466,-0.345z" transform="matrix(1,0,0,-1,5,6.155)" fill="rgb(255,255,255)" stroke="rgb(0,0,0)" stroke-width="0.0010cm" stroke-linecap="round" stroke-linejoin="round" shaper:cutDepth="0.0033" /></svg>