<?xml version="1.0" encoding="UTF-8" standalone="no"?>
<!-- Generator: Fusion 360, Shaper Origin Export Add-In, Version 1.6.10  -->

<svg
   shaper:fusionaddin="version:1.6.10"
   width="10cm"
   height="9.34cm"
   version="1.1"
   x="0cm"
   y="0cm"
   viewBox="0 0 10 9.34"
   enable-background="new 0 0 10 9.34"
   xml:space="preserve"
   id="svg20"
   sodipodi:docname="Left.svg"
   inkscape:version="1.4.2 (f4327f4, 2025-05-13)"
   xmlns:inkscape="http://www.inkscape.org/namespaces/inkscape"
   xmlns:sodipodi="http://sodipodi.sourceforge.net/DTD/sodipodi-0.dtd"
   xmlns="http://www.w3.org/2000/svg"
   xmlns:svg="http://www.w3.org/2000/svg"
   xmlns:shaper="http://www.shapertools.com/namespaces/shaper"><defs
     id="defs20" /><sodipodi:namedview
     id="namedview20"
     pagecolor="#ffffff"
     bordercolor="#000000"
     borderopacity="0.25"
     inkscape:showpageshadow="2"
     inkscape:pageopacity="0.0"
     inkscape:pagecheckerboard="0"
     inkscape:deskcolor="#d1d1d1"
     inkscape:document-units="cm"
     inkscape:zoom="1.5603278"
     inkscape:cx="198.99665"
     inkscape:cy="203.16244"
     inkscape:window-width="1336"
     inkscape:window-height="954"
     inkscape:window-x="2279"
     inkscape:window-y="122"
     inkscape:window-maximized="0"
     inkscape:current-layer="svg20"
     showguides="true" /><path
     d="M-5,4.67 L5,4.67 5,-4.67 -5,-4.67 -5,4.67z"
     transform="matrix(1,0,0,-1,5,4.67)"
     fill="rgb(0,0,0)"
     shaper:cutDepth="0.0033"
     stroke-linecap="round"
     stroke-linejoin="round"
     id="path1" /><path
     d="M-3.52,0.5 L-3.67,0.65 -3.67,3.3164466 -0.8535534,0.5 -3.52,0.5z"
     transform="matrix(1,0,0,-1,5,4.67)"
     fill="rgb(255,255,255)"
     stroke="rgb(0,0,0)"
     stroke-width="0.0010cm"
     stroke-linecap="round"
     stroke-linejoin="round"
     shaper:cutDepth="0.0033"
     id="path2" /><path
     d="M3.0250001,-0.5 L3.52,-0.5 3.67,-0.65 3.67,-3.3164466 1.7285534,-1.375 2.5250001,-1.375 2.7750001,-1.125 2.7750001,-0.75 3.0250001,-0.5z"
     transform="matrix(1,0,0,-1,5,4.67)"
     fill="rgb(255,255,255)"
     stroke="rgb(0,0,0)"
     stroke-width="0.0010cm"
     stroke-linecap="round"
     stroke-linejoin="round"
     shaper:cutDepth="0.0033"
     id="path3" /><path
     d="M2.4000001,-1 L0.665,-1 0.665,1.25 2.4000001,1.25 2.4000001,-1z"
     transform="matrix(1,0,0,-1,5,4.67)"
     fill="rgb(255,255,255)"
     stroke="rgb(0,0,0)"
     stroke-width="0.0010cm"
     stroke-linecap="round"
     stroke-linejoin="round"
     shaper:cutDepth="0.0033"
     id="path4" /><path
     d="M-0.665,-3.52 L-0.815,-3.67 -3.3164466,-3.67 -0.665,-1.0185534 -0.665,-3.52z"
     transform="matrix(1,0,0,-1,5,4.67)"
     fill="rgb(255,255,255)"
     stroke="rgb(0,0,0)"
     stroke-width="0.0010cm"
     stroke-linecap="round"
     stroke-linejoin="round"
     shaper:cutDepth="0.0033"
     id="path5" /><path
     d="M3.67,0.65 L3.52,0.5 3.0250001,0.5 2.7750001,0.75 2.7750001,1.375 2.5250001,1.625 1.9785534,1.625 3.67,3.3164466 3.67,0.65z"
     transform="matrix(1,0,0,-1,5,4.67)"
     fill="rgb(255,255,255)"
     stroke="rgb(0,0,0)"
     stroke-width="0.0010cm"
     stroke-linecap="round"
     stroke-linejoin="round"
     shaper:cutDepth="0.0033"
     id="path6" /><path
     d="M1.2714466,1.625 L0.915,1.625 0.665,1.875 0.665,3.52 0.815,3.67 3.3164466,3.67 1.2714466,1.625z"
     transform="matrix(1,0,0,-1,5,4.67)"
     fill="rgb(255,255,255)"
     stroke="rgb(0,0,0)"
     stroke-width="0.0010cm"
     stroke-linecap="round"
     stroke-linejoin="round"
     shaper:cutDepth="0.0033"
     id="path7" /><path
     d="M0.915,-1.375 L0.665,-1.625 0.665,-3.52 0.815,-3.67 3.3164466,-3.67 1.0214466,-1.375 0.915,-1.375z"
     transform="matrix(1,0,0,-1,5,4.67)"
     fill="rgb(255,255,255)"
     stroke="rgb(0,0,0)"
     stroke-width="0.0010cm"
     stroke-linecap="round"
     stroke-linejoin="round"
     shaper:cutDepth="0.0033"
     id="path8" /><path
     d="M-4.17,3.67 L-4.17,1.5 -4.5,1.5 -4.5,3.67 -4.17,3.67z"
     transform="matrix(1,0,0,-1,5,4.67)"
     fill="rgb(255,255,255)"
     stroke="rgb(0,0,0)"
     stroke-width="0.0010cm"
     stroke-linecap="round"
     stroke-linejoin="round"
     shaper:cutDepth="0.0033"
     id="path9" /><path
     d="M 5.1512065,8.3111062 H 4.8487935 V 1.0137935 h 0.302413 z"
     fill="#ffffff"
     stroke="#000000"
     stroke-width="0.0010369cm"
     stroke-linecap="round"
     stroke-linejoin="round"
     shaper:cutDepth="0.0033"
     id="path10" /><path
     d="M-4.17,-3.67 L-4.5,-3.67 -4.5,-1.5 -4.17,-1.5 -4.17,-3.67z"
     transform="matrix(1,0,0,-1,5,4.67)"
     fill="rgb(255,255,255)"
     stroke="rgb(0,0,0)"
     stroke-width="0.0010cm"
     stroke-linecap="round"
     stroke-linejoin="round"
     shaper:cutDepth="0.0033"
     id="path11" /><path
     d="M-0.665,1.0185534 L-3.3164466,3.67 -0.815,3.67 -0.665,3.52 -0.665,1.0185534z"
     transform="matrix(1,0,0,-1,5,4.67)"
     fill="rgb(255,255,255)"
     stroke="rgb(0,0,0)"
     stroke-width="0.0010cm"
     stroke-linecap="round"
     stroke-linejoin="round"
     shaper:cutDepth="0.0033"
     id="path12" /><path
     d="M-0.8535534,-0.5 L-3.67,-3.3164467 -3.67,-0.65 -3.52,-0.5 -0.8535534,-0.5z"
     transform="matrix(1,0,0,-1,5,4.67)"
     fill="rgb(255,255,255)"
     stroke="rgb(0,0,0)"
     stroke-width="0.0010cm"
     stroke-linecap="round"
     stroke-linejoin="round"
     shaper:cutDepth="0.0033"
     id="path13" /><path
     d="m 0.82289764,0.6512 a 0.15,0.15 0 1 0 0.29999996,0 0.15,0.15 0 1 0 -0.29999996,0 z"
     fill="#ffffff"
     stroke="#000000"
     stroke-width="0.001cm"
     stroke-linecap="round"
     stroke-linejoin="round"
     shaper:cutDepth="0.0033"
     id="path15" /><path
     d="m 0.82289764,8.6888 a 0.15,0.15 0 1 0 0.29999996,0 0.15,0.15 0 1 0 -0.29999996,0 z"
     fill="#ffffff"
     stroke="#000000"
     stroke-width="0.001cm"
     stroke-linecap="round"
     stroke-linejoin="round"
     shaper:cutDepth="0.0033"
     id="path16" /><path
     d="m 8.8498976,8.6888 a 0.15,0.15 0 1 0 0.3,0 0.15,0.15 0 1 0 -0.3,0 z"
     fill="#ffffff"
     stroke="#000000"
     stroke-width="0.001cm"
     stroke-linecap="round"
     stroke-linejoin="round"
     shaper:cutDepth="0.0033"
     id="path17" /><path
     d="M4.5,1.5 L4.17,1.5 4.17,3.67 4.5,3.67 4.5,1.5z"
     transform="matrix(1,0,0,-1,5,4.67)"
     fill="rgb(255,255,255)"
     stroke="rgb(0,0,0)"
     stroke-width="0.0010cm"
     stroke-linecap="round"
     stroke-linejoin="round"
     shaper:cutDepth="0.0033"
     id="path18" /><path
     d="M4.17,-1.5 L4.5,-1.5 4.5,-3.67 4.17,-3.67 4.17,-1.5z"
     transform="matrix(1,0,0,-1,5,4.67)"
     fill="rgb(255,255,255)"
     stroke="rgb(0,0,0)"
     stroke-width="0.0010cm"
     stroke-linecap="round"
     stroke-linejoin="round"
     shaper:cutDepth="0.0033"
     id="path19" /><path
     d="m 8.8498976,0.6512 a 0.15,0.15 0 1 0 0.3,0 0.15,0.15 0 1 0 -0.3,0 z"
     fill="#ffffff"
     stroke="#000000"
     stroke-width="0.001cm"
     stroke-linecap="round"
     stroke-linejoin="round"
     shaper:cutDepth="0.0033"
     id="path20" /></svg>
