<?xml version="1.0" encoding="UTF-8" standalone="no"?>
<!-- Generator: Fusion 360, Shaper Origin Export Add-In, Version 1.6.10  -->

<svg
   shaper:fusionaddin="version:1.6.10"
   width="10cm"
   height="10cm"
   version="1.1"
   x="0cm"
   y="0cm"
   viewBox="0 0 10 10"
   enable-background="new 0 0 10 10"
   xml:space="preserve"
   id="svg6"
   sodipodi:docname="Middle.svg"
   inkscape:version="1.4.2 (ebf0e940, 2025-05-08)"
   xmlns:inkscape="http://www.inkscape.org/namespaces/inkscape"
   xmlns:sodipodi="http://sodipodi.sourceforge.net/DTD/sodipodi-0.dtd"
   xmlns="http://www.w3.org/2000/svg"
   xmlns:svg="http://www.w3.org/2000/svg"
   xmlns:shaper="http://www.shapertools.com/namespaces/shaper"><defs
     id="defs6" /><sodipodi:namedview
     id="namedview6"
     pagecolor="#ffffff"
     bordercolor="#000000"
     borderopacity="0.25"
     inkscape:showpageshadow="2"
     inkscape:pageopacity="0.0"
     inkscape:pagecheckerboard="0"
     inkscape:deskcolor="#d1d1d1"
     inkscape:document-units="cm"
     inkscape:zoom="1.9619635"
     inkscape:cx="128.18791"
     inkscape:cy="156.22105"
     inkscape:window-width="1184"
     inkscape:window-height="662"
     inkscape:window-x="279"
     inkscape:window-y="30"
     inkscape:window-maximized="0"
     inkscape:current-layer="svg6" /><path
     d="M-5,-4.28 L-4.66,-4.28 -4.66,-1.28 -5,-1.28 -5,0.88 -3.66,0.88 -3.66,2.22 -1.5,2.22 -1.5,1.88 1.5,1.88 1.5,2.22 3.66,2.22 3.66,0.88 5,0.88 5,-1.28 4.66,-1.28 4.66,-4.28 5,-4.28 5,-6.44 3.66,-6.44 3.66,-7.78 1.5,-7.78 1.5,-7.44 -1.5,-7.44 -1.5,-7.78 -3.66,-7.78 -3.66,-6.44 -5,-6.44 -5,-4.28z"
     transform="matrix(1,0,0,-1,5,2.22)"
     fill="rgb(0,0,0)"
     shaper:cutDepth="0.0033"
     stroke-linecap="round"
     stroke-linejoin="round"
     id="path1" /><path
     d="M1.82,-5.62 a0.15,0.15 0 1,1 0.3,0 a0.15,0.15 0 1,1 -0.3,0z"
     transform="matrix(1,0,0,-1,5,2.22)"
     fill="rgb(255,255,255)"
     stroke="rgb(0,0,0)"
     stroke-width="0.0010cm"
     stroke-linecap="round"
     stroke-linejoin="round"
     shaper:cutDepth="0.0033"
     id="path2" /><path
     d="M-3.98,-0.62 a0.15,0.15 0 1,1 0.3,0 a0.15,0.15 0 1,1 -0.3,0z"
     transform="matrix(1,0,0,-1,5,2.22)"
     fill="rgb(255,255,255)"
     stroke="rgb(0,0,0)"
     stroke-width="0.0010cm"
     stroke-linecap="round"
     stroke-linejoin="round"
     shaper:cutDepth="0.0033"
     id="path3" /><path
     d="M1.82,-0.62 a0.15,0.15 0 1,1 0.3,0 a0.15,0.15 0 1,1 -0.3,0z"
     transform="matrix(1,0,0,-1,5,2.22)"
     fill="rgb(255,255,255)"
     stroke="rgb(0,0,0)"
     stroke-width="0.0010cm"
     stroke-linecap="round"
     stroke-linejoin="round"
     shaper:cutDepth="0.0033"
     id="path4" /><path
     d="M-3.98,-5.62 a0.15,0.15 0 1,1 0.3,0 a0.15,0.15 0 1,1 -0.3,0z"
     transform="matrix(1,0,0,-1,5,2.22)"
     fill="rgb(255,255,255)"
     stroke="rgb(0,0,0)"
     stroke-width="0.0010cm"
     stroke-linecap="round"
     stroke-linejoin="round"
     shaper:cutDepth="0.0033"
     id="path5" /><path
     d="M-4.3,-0.88 L-4.3,-5.28 4.2000001,-5.28 4.2000001,-0.88 -4.3,-0.88z"
     fill="rgb(255,255,255)"
     stroke="rgb(0,0,0)"
     stroke-width="0.0010cm"
     stroke-linecap="round"
     stroke-linejoin="round"
     shaper:cutDepth="0.0033"
     id="path6"
     transform="matrix(1,0,0,-1,5,2.22)"
     style="fill:#ffffff" /><rect
     style="fill:#000000;stroke-width:0.0267177"
     id="rect6"
     width="0.48509431"
     height="3.3597808"
     x="0.00080656889"
     y="3.4787114" /><rect
     style="fill:#000000;stroke-width:0.0267177"
     id="rect6-9"
     width="0.48509431"
     height="3.3597808"
     x="9.5121622"
     y="3.3915441" /></svg>
