<?xml version="1.0" encoding="UTF-8" standalone="no"?>
<!-- Generator: Fusion 360, Shaper Origin Export Add-In, Version 1.6.10  -->

<svg
   shaper:fusionaddin="version:1.6.10"
   width="10cm"
   height="9.34cm"
   version="1.1"
   x="0cm"
   y="0cm"
   viewBox="0 0 10 9.34"
   enable-background="new 0 0 10 9.34"
   xml:space="preserve"
   id="svg18"
   sodipodi:docname="Right.svg"
   inkscape:version="1.4.2 (f4327f4, 2025-05-13)"
   xmlns:inkscape="http://www.inkscape.org/namespaces/inkscape"
   xmlns:sodipodi="http://sodipodi.sourceforge.net/DTD/sodipodi-0.dtd"
   xmlns="http://www.w3.org/2000/svg"
   xmlns:svg="http://www.w3.org/2000/svg"
   xmlns:shaper="http://www.shapertools.com/namespaces/shaper"><defs
     id="defs18" /><sodipodi:namedview
     id="namedview18"
     pagecolor="#ffffff"
     bordercolor="#000000"
     borderopacity="0.25"
     inkscape:showpageshadow="2"
     inkscape:pageopacity="0.0"
     inkscape:pagecheckerboard="0"
     inkscape:deskcolor="#d1d1d1"
     inkscape:document-units="cm"
     inkscape:zoom="0.72395077"
     inkscape:cx="-3.4532735"
     inkscape:cy="146.4188"
     inkscape:window-width="1336"
     inkscape:window-height="652"
     inkscape:window-x="2262"
     inkscape:window-y="178"
     inkscape:window-maximized="0"
     inkscape:current-layer="svg18" /><path
     d="M-5,4.67 L5,4.67 5,-4.67 -5,-4.67 -5,4.67z"
     transform="matrix(1,0,0,-1,5,4.67)"
     fill="rgb(0,0,0)"
     shaper:cutDepth="0.0033"
     stroke-linecap="round"
     stroke-linejoin="round"
     id="path1" /><path
     d="M0.665,-0.9631952 L3.540804,-3.649196 3.52,-3.67 0.815,-3.67 0.665,-3.52 0.665,-0.9631952z"
     transform="matrix(1,0,0,-1,5,4.67)"
     fill="rgb(255,255,255)"
     stroke="rgb(0,0,0)"
     stroke-width="0.0010cm"
     stroke-linecap="round"
     stroke-linejoin="round"
     shaper:cutDepth="0.0033"
     id="path2" /><path
     d="M0.9015901,0.5 L3.67,3.0856948 3.67,0.65 3.52,0.5 0.9015901,0.5z"
     transform="matrix(1,0,0,-1,5,4.67)"
     fill="rgb(255,255,255)"
     stroke="rgb(0,0,0)"
     stroke-width="0.0010cm"
     stroke-linecap="round"
     stroke-linejoin="round"
     shaper:cutDepth="0.0033"
     id="path3" /><path
     d="M-1.1176839,-3.67 L-1.1176839,-0.5 -0.815,-0.5 -0.665,-0.65 -0.665,-3.52 -0.815,-3.67 -1.1176839,-3.67z"
     transform="matrix(1,0,0,-1,5,4.67)"
     fill="rgb(255,255,255)"
     stroke="rgb(0,0,0)"
     stroke-width="0.0010cm"
     stroke-linecap="round"
     stroke-linejoin="round"
     shaper:cutDepth="0.0033"
     id="path4" /><path
     d="M-1.1176839,0.5 L-1.1176839,3.67 -0.815,3.67 -0.665,3.52 -0.665,0.65 -0.815,0.5 -1.1176839,0.5z"
     transform="matrix(1,0,0,-1,5,4.67)"
     fill="rgb(255,255,255)"
     stroke="rgb(0,0,0)"
     stroke-width="0.0010cm"
     stroke-linecap="round"
     stroke-linejoin="round"
     shaper:cutDepth="0.0033"
     id="path5" /><path
     d="M4.17,-3.67 L4.17,-1.5 4.5,-1.5 4.5,-3.67 4.17,-3.67z"
     transform="matrix(1,0,0,-1,5,4.67)"
     fill="rgb(255,255,255)"
     stroke="rgb(0,0,0)"
     stroke-width="0.0010cm"
     stroke-linecap="round"
     stroke-linejoin="round"
     shaper:cutDepth="0.0033"
     id="path6" /><path
     d="M 4.8491749,1.0291989 H 5.1508251 V 8.3258251 H 4.8491749 Z"
     fill="#ffffff"
     stroke="#000000"
     stroke-width="0.00100414cm"
     stroke-linecap="round"
     stroke-linejoin="round"
     shaper:cutDepth="0.0033"
     id="path7" /><path
     d="M4.17,3.67 L4.5,3.67 4.5,1.5 4.17,1.5 4.17,3.67z"
     transform="matrix(1,0,0,-1,5,4.67)"
     fill="rgb(255,255,255)"
     stroke="rgb(0,0,0)"
     stroke-width="0.0010cm"
     stroke-linecap="round"
     stroke-linejoin="round"
     shaper:cutDepth="0.0033"
     id="path8" /><path
     d="M3.67,-3.0856948 L0.9015901,-0.5 3.52,-0.5 3.67,-0.65 3.67,-3.0856948z"
     transform="matrix(1,0,0,-1,5,4.67)"
     fill="rgb(255,255,255)"
     stroke="rgb(0,0,0)"
     stroke-width="0.0010cm"
     stroke-linecap="round"
     stroke-linejoin="round"
     shaper:cutDepth="0.0033"
     id="path9" /><path
     d="M-3.67,-3.52 L-3.67,3.52 -3.52,3.67 -1.5599839,3.67 -1.5599839,-3.67 -3.52,-3.67 -3.67,-3.52z"
     transform="matrix(1,0,0,-1,5,4.67)"
     fill="rgb(255,255,255)"
     stroke="rgb(0,0,0)"
     stroke-width="0.0010cm"
     stroke-linecap="round"
     stroke-linejoin="round"
     shaper:cutDepth="0.0033"
     id="path10" /><path
     d="M3.540804,3.649196 L0.665,0.9631952 0.665,3.52 0.815,3.67 3.52,3.67 3.540804,3.649196z"
     transform="matrix(1,0,0,-1,5,4.67)"
     fill="rgb(255,255,255)"
     stroke="rgb(0,0,0)"
     stroke-width="0.0010cm"
     stroke-linecap="round"
     stroke-linejoin="round"
     shaper:cutDepth="0.0033"
     id="path11" /><path
     d="m 8.8498976,8.6888 a 0.15,0.15 0 1 0 0.3,0 0.15,0.15 0 1 0 -0.3,0 z"
     fill="#ffffff"
     stroke="#000000"
     stroke-width="0.001cm"
     stroke-linecap="round"
     stroke-linejoin="round"
     shaper:cutDepth="0.0033"
     id="path13" /><path
     d="m 8.8498976,0.6512 a 0.15,0.15 0 1 0 0.3,0 0.15,0.15 0 1 0 -0.3,0 z"
     fill="#ffffff"
     stroke="#000000"
     stroke-width="0.001cm"
     stroke-linecap="round"
     stroke-linejoin="round"
     shaper:cutDepth="0.0033"
     id="path14" /><path
     d="m 0.82289764,0.6512 a 0.15,0.15 0 1 0 0.29999996,0 0.15,0.15 0 1 0 -0.29999996,0 z"
     fill="#ffffff"
     stroke="#000000"
     stroke-width="0.001cm"
     stroke-linecap="round"
     stroke-linejoin="round"
     shaper:cutDepth="0.0033"
     id="path15" /><path
     d="M-4.5,-1.5 L-4.17,-1.5 -4.17,-3.67 -4.5,-3.67 -4.5,-1.5z"
     transform="matrix(1,0,0,-1,5,4.67)"
     fill="rgb(255,255,255)"
     stroke="rgb(0,0,0)"
     stroke-width="0.0010cm"
     stroke-linecap="round"
     stroke-linejoin="round"
     shaper:cutDepth="0.0033"
     id="path16" /><path
     d="M-4.17,1.5 L-4.5,1.5 -4.5,3.67 -4.17,3.67 -4.17,1.5z"
     transform="matrix(1,0,0,-1,5,4.67)"
     fill="rgb(255,255,255)"
     stroke="rgb(0,0,0)"
     stroke-width="0.0010cm"
     stroke-linecap="round"
     stroke-linejoin="round"
     shaper:cutDepth="0.0033"
     id="path17" /><path
     d="m 0.82289764,8.6888 a 0.15,0.15 0 1 0 0.29999996,0 0.15,0.15 0 1 0 -0.29999996,0 z"
     fill="#ffffff"
     stroke="#000000"
     stroke-width="0.001cm"
     stroke-linecap="round"
     stroke-linejoin="round"
     shaper:cutDepth="0.0033"
     id="path18" /></svg>
