<?xml version="1.0" encoding="UTF-8" standalone="no"?>
<!-- Generator: Fusion 360, Shaper Origin Export Add-In, Version 1.6.10  -->

<svg
   shaper:fusionaddin="version:1.6.10"
   width="12.2470895cm"
   height="12.2470895cm"
   version="1.1"
   x="0cm"
   y="0cm"
   viewBox="0 0 12.2470895 12.2470895"
   enable-background="new 0 0 12.2470895 12.2470895"
   xml:space="preserve"
   id="svg10"
   sodipodi:docname="Top.svg"
   inkscape:version="1.4.2 (f4327f4, 2025-05-13)"
   xmlns:inkscape="http://www.inkscape.org/namespaces/inkscape"
   xmlns:sodipodi="http://sodipodi.sourceforge.net/DTD/sodipodi-0.dtd"
   xmlns="http://www.w3.org/2000/svg"
   xmlns:svg="http://www.w3.org/2000/svg"
   xmlns:shaper="http://www.shapertools.com/namespaces/shaper"><defs
     id="defs10" /><sodipodi:namedview
     id="namedview10"
     pagecolor="#ffffff"
     bordercolor="#000000"
     borderopacity="0.25"
     inkscape:showpageshadow="2"
     inkscape:pageopacity="0.0"
     inkscape:pagecheckerboard="0"
     inkscape:deskcolor="#d1d1d1"
     inkscape:document-units="cm"
     inkscape:zoom="0.59089193"
     inkscape:cx="357.93347"
     inkscape:cy="356.24112"
     inkscape:window-width="1216"
     inkscape:window-height="607"
     inkscape:window-x="2269"
     inkscape:window-y="232"
     inkscape:window-maximized="0"
     inkscape:current-layer="svg10" /><path
     d="M-3.4153258,-5.5366461 L-3.1749094,-5.2962298 -5.2962298,-3.1749094 -5.5366461,-3.4153258 -7.0639967,-1.8879751 -6.1164737,-0.940452 -7.0639967,0.0070711 -5.5366461,1.5344217 -5.2962298,1.2940054 -3.1749094,3.4153258 -3.4153258,3.6557421 -1.8879751,5.1830927 -0.940452,4.2355696 0.0070711,5.1830927 1.5344217,3.6557421 1.2940054,3.4153258 3.4153258,1.2940054 3.6557421,1.5344217 5.1830927,0.0070711 4.2355696,-0.940452 5.1830927,-1.8879751 3.6557421,-3.4153258 3.4153258,-3.1749094 1.2940054,-5.2962298 1.5344217,-5.5366461 0.0070711,-7.0639967 -0.940452,-6.1164737 -1.8879751,-7.0639967 -3.4153258,-5.5366461z"
     fill="rgb(0,0,0)"
     shaper:cutDepth="0.0033"
     stroke-linecap="round"
     stroke-linejoin="round"
     id="path1"
     transform="matrix(1,0,0,-1,7.0639967,5.1830927)" /><path
     d="M-1.440452,-0.940452 a0.5,0.5 0 1,1 1,0 a0.5,0.5 0 1,1 -1,0z"
     transform="matrix(1,0,0,-1,7.0639967,5.1830927)"
     fill="rgb(255,255,255)"
     stroke="rgb(0,0,0)"
     stroke-width="0.0010cm"
     stroke-linecap="round"
     stroke-linejoin="round"
     shaper:cutDepth="0.0033"
     id="path2" /><path
     d="M-0.2333452,-5.4093669 L-0.690452,-5.4093669 -0.690452,-1.7940054 -0.5136753,-1.7207821 1.2940054,-3.5284628 1.2940054,-3.8820162 -0.2333452,-5.4093669z"
     transform="matrix(1,0,0,-1,7.0639967,5.1830927)"
     fill="rgb(255,255,255)"
     stroke="rgb(0,0,0)"
     stroke-width="0.0010cm"
     stroke-linecap="round"
     stroke-linejoin="round"
     shaper:cutDepth="0.0033"
     id="path3" /><path
     d="M-0.0868986,-1.190452 L3.5284628,-1.190452 3.5284628,-1.6475588 2.0011122,-3.1749094 1.6475588,-3.1749094 -0.1601219,-1.3672287 -0.0868986,-1.190452z"
     transform="matrix(1,0,0,-1,7.0639967,5.1830927)"
     fill="rgb(255,255,255)"
     stroke="rgb(0,0,0)"
     stroke-width="0.0010cm"
     stroke-linecap="round"
     stroke-linejoin="round"
     shaper:cutDepth="0.0033"
     id="path4" /><path
     d="M-5.4093669,-1.6475588 L-5.4093669,-1.190452 -1.7940054,-1.190452 -1.7207821,-1.3672287 -3.5284628,-3.1749094 -3.8820162,-3.1749094 -5.4093669,-1.6475588z"
     transform="matrix(1,0,0,-1,7.0639967,5.1830927)"
     fill="rgb(255,255,255)"
     stroke="rgb(0,0,0)"
     stroke-width="0.0010cm"
     stroke-linecap="round"
     stroke-linejoin="round"
     shaper:cutDepth="0.0033"
     id="path5" /><path
     d="M-1.190452,-1.7940054 L-1.190452,-5.4093669 -1.6475588,-5.4093669 -3.1749094,-3.8820162 -3.1749094,-3.5284628 -1.3672287,-1.7207821 -1.190452,-1.7940054z"
     transform="matrix(1,0,0,-1,7.0639967,5.1830927)"
     fill="rgb(255,255,255)"
     stroke="rgb(0,0,0)"
     stroke-width="0.0010cm"
     stroke-linecap="round"
     stroke-linejoin="round"
     shaper:cutDepth="0.0033"
     id="path6" /><path
     d="M-0.2333452,3.5284628 L1.2940054,2.0011122 1.2940054,1.6475588 -0.5136753,-0.1601219 -0.690452,-0.0868986 -0.690452,3.5284628 -0.2333452,3.5284628z"
     transform="matrix(1,0,0,-1,7.0639967,5.1830927)"
     fill="rgb(255,255,255)"
     stroke="rgb(0,0,0)"
     stroke-width="0.0010cm"
     stroke-linecap="round"
     stroke-linejoin="round"
     shaper:cutDepth="0.0033"
     id="path7" /><path
     d="M-1.7940054,-0.690452 L-5.4093669,-0.690452 -5.4093669,-0.2333452 -3.8820162,1.2940054 -3.5284628,1.2940054 -1.7207821,-0.5136753 -1.7940054,-0.690452z"
     transform="matrix(1,0,0,-1,7.0639967,5.1830927)"
     fill="rgb(255,255,255)"
     stroke="rgb(0,0,0)"
     stroke-width="0.0010cm"
     stroke-linecap="round"
     stroke-linejoin="round"
     shaper:cutDepth="0.0033"
     id="path8" /><path
     d="M-1.190452,3.5284628 L-1.190452,-0.0868986 -1.3672287,-0.1601219 -3.1749094,1.6475588 -3.1749094,2.0011122 -1.6475588,3.5284628 -1.190452,3.5284628z"
     transform="matrix(1,0,0,-1,7.0639967,5.1830927)"
     fill="rgb(255,255,255)"
     stroke="rgb(0,0,0)"
     stroke-width="0.0010cm"
     stroke-linecap="round"
     stroke-linejoin="round"
     shaper:cutDepth="0.0033"
     id="path9" /><path
     d="M3.5284628,-0.690452 L-0.0868986,-0.690452 -0.1601219,-0.5136753 1.6475588,1.2940054 2.0011122,1.2940054 3.5284628,-0.2333452 3.5284628,-0.690452z"
     transform="matrix(1,0,0,-1,7.0639967,5.1830927)"
     fill="rgb(255,255,255)"
     stroke="rgb(0,0,0)"
     stroke-width="0.0010cm"
     stroke-linecap="round"
     stroke-linejoin="round"
     shaper:cutDepth="0.0033"
     id="path10" /></svg>
