<?xml version="1.0" encoding="UTF-8" standalone="no"?>
<!-- Generator: Fusion 360, Shaper Origin Export Add-In, Version 1.6.10  -->

<svg
   shaper:fusionaddin="version:1.6.10"
   width="10cm"
   height="10cm"
   version="1.1"
   x="0cm"
   y="0cm"
   viewBox="0 0 10 10"
   enable-background="new 0 0 10 10"
   xml:space="preserve"
   id="svg20"
   sodipodi:docname="Front.svg"
   inkscape:version="1.4.2 (ebf0e940, 2025-05-08)"
   xmlns:inkscape="http://www.inkscape.org/namespaces/inkscape"
   xmlns:sodipodi="http://sodipodi.sourceforge.net/DTD/sodipodi-0.dtd"
   xmlns="http://www.w3.org/2000/svg"
   xmlns:svg="http://www.w3.org/2000/svg"
   xmlns:shaper="http://www.shapertools.com/namespaces/shaper"><defs
     id="defs20" /><sodipodi:namedview
     id="namedview20"
     pagecolor="#ffffff"
     bordercolor="#000000"
     borderopacity="0.25"
     inkscape:showpageshadow="2"
     inkscape:pageopacity="0.0"
     inkscape:pagecheckerboard="0"
     inkscape:deskcolor="#d1d1d1"
     inkscape:document-units="cm"
     inkscape:zoom="1.0630212"
     inkscape:cx="89.838283"
     inkscape:cy="312.78774"
     inkscape:window-width="1248"
     inkscape:window-height="726"
     inkscape:window-x="0"
     inkscape:window-y="25"
     inkscape:window-maximized="0"
     inkscape:current-layer="svg20" /><path
     d="M-5,-5 L-5,5 5,5 5,-5 -5,-5z"
     transform="matrix(1,0,0,-1,5,5)"
     fill="rgb(0,0,0)"
     shaper:cutDepth="0.0033"
     stroke-linecap="round"
     stroke-linejoin="round"
     id="path1" /><path
     d="M3.67,-3.3164466 L3.67,-2.8419418 3.1954952,-2.8419418 3.67,-3.3164466z"
     transform="matrix(1,0,0,-1,5,5)"
     fill="rgb(255,255,255)"
     stroke="rgb(0,0,0)"
     stroke-width="0.0010cm"
     stroke-linecap="round"
     stroke-linejoin="round"
     shaper:cutDepth="0.0033"
     id="path2" /><path
     d="M 3.5005312,5.4005313 H 8.9700335 V 7.3994689 H 3.5005312 Z"
     fill="#ffffff"
     stroke="#000000"
     stroke-width="0.00101858cm"
     stroke-linecap="round"
     stroke-linejoin="round"
     shaper:cutDepth="0.0033"
     id="path3" /><path
     d="M-3.67,3.3164466 L-1.0185534,0.665 -3.52,0.665 -3.67,0.815 -3.67,3.3164466z"
     transform="matrix(1,0,0,-1,5,5)"
     fill="rgb(255,255,255)"
     stroke="rgb(0,0,0)"
     stroke-width="0.0010cm"
     stroke-linecap="round"
     stroke-linejoin="round"
     shaper:cutDepth="0.0033"
     id="path4" /><path
     d="M2.4883884,-2.8419418 L3.3164466,-3.67 0.65,-3.67 0.5,-3.52 0.5,-3.0919418 0.75,-2.8419418 2.4883884,-2.8419418z"
     transform="matrix(1,0,0,-1,5,5)"
     fill="rgb(255,255,255)"
     stroke="rgb(0,0,0)"
     stroke-width="0.0010cm"
     stroke-linecap="round"
     stroke-linejoin="round"
     shaper:cutDepth="0.0033"
     id="path5" /><path
     d="M-1.9419418,-1.5883884 L-3.67,-3.3164466 -3.67,-0.815 -3.52,-0.665 -2.1919418,-0.665 -1.9419418,-0.915 -1.9419418,-1.5883884z"
     transform="matrix(1,0,0,-1,5,5)"
     fill="rgb(255,255,255)"
     stroke="rgb(0,0,0)"
     stroke-width="0.0010cm"
     stroke-linecap="round"
     stroke-linejoin="round"
     shaper:cutDepth="0.0033"
     id="path6" /><path
     d="M3.3164466,3.67 L0.5,0.8535534 0.5,3.52 0.65,3.67 3.3164466,3.67z"
     transform="matrix(1,0,0,-1,5,5)"
     fill="rgb(255,255,255)"
     stroke="rgb(0,0,0)"
     stroke-width="0.0010cm"
     stroke-linecap="round"
     stroke-linejoin="round"
     shaper:cutDepth="0.0033"
     id="path7" /><path
     d="M-1.6919418,-2.8419418 L-0.75,-2.8419418 -0.5,-3.0919418 -0.5,-3.52 -0.65,-3.67 -3.3164466,-3.67 -1.9419418,-2.2954952 -1.9419418,-2.5919418 -1.6919418,-2.8419418z"
     transform="matrix(1,0,0,-1,5,5)"
     fill="rgb(255,255,255)"
     stroke="rgb(0,0,0)"
     stroke-width="0.0010cm"
     stroke-linecap="round"
     stroke-linejoin="round"
     shaper:cutDepth="0.0033"
     id="path8" /><path
     d="M1.0185534,0.665 L3.67,3.3164466 3.67,0.815 3.52,0.665 1.0185534,0.665z"
     transform="matrix(1,0,0,-1,5,5)"
     fill="rgb(255,255,255)"
     stroke="rgb(0,0,0)"
     stroke-width="0.0010cm"
     stroke-linecap="round"
     stroke-linejoin="round"
     shaper:cutDepth="0.0033"
     id="path9" /><path
     d="M-0.5,0.8535534 L-3.3164466,3.67 -0.65,3.67 -0.5,3.52 -0.5,0.8535534z"
     transform="matrix(1,0,0,-1,5,5)"
     fill="rgb(255,255,255)"
     stroke="rgb(0,0,0)"
     stroke-width="0.0010cm"
     stroke-linecap="round"
     stroke-linejoin="round"
     shaper:cutDepth="0.0033"
     id="path10" /><path
     d="M3.8688,-4.5125 a0.15,0.15 0 1,1 0.3,0 a0.15,0.15 0 1,1 -0.3,0z"
     transform="matrix(1,0,0,-1,5,5)"
     fill="rgb(255,255,255)"
     stroke="rgb(0,0,0)"
     stroke-width="0.0010cm"
     stroke-linecap="round"
     stroke-linejoin="round"
     shaper:cutDepth="0.0033"
     id="path11" /><path
     d="M-3.67,-4.17 L-1.5,-4.17 -1.5,-4.5 -3.67,-4.5 -3.67,-4.17z"
     transform="matrix(1,0,0,-1,5,5)"
     fill="rgb(255,255,255)"
     stroke="rgb(0,0,0)"
     stroke-width="0.0010cm"
     stroke-linecap="round"
     stroke-linejoin="round"
     shaper:cutDepth="0.0033"
     id="path12" /><path
     d="M3.67,-4.5 L1.5,-4.5 1.5,-4.17 3.67,-4.17 3.67,-4.5z"
     transform="matrix(1,0,0,-1,5,5)"
     fill="rgb(255,255,255)"
     stroke="rgb(0,0,0)"
     stroke-width="0.0010cm"
     stroke-linecap="round"
     stroke-linejoin="round"
     shaper:cutDepth="0.0033"
     id="path13" /><path
     d="M-4.1688,-4.5 a0.15,0.15 0 1,1 0.3,0 a0.15,0.15 0 1,1 -0.3,0z"
     transform="matrix(1,0,0,-1,5,5)"
     fill="rgb(255,255,255)"
     stroke="rgb(0,0,0)"
     stroke-width="0.0010cm"
     stroke-linecap="round"
     stroke-linejoin="round"
     shaper:cutDepth="0.0033"
     id="path14" /><path
     d="M-4.1688,4.5125 a0.15,0.15 0 1,1 0.3,0 a0.15,0.15 0 1,1 -0.3,0z"
     transform="matrix(1,0,0,-1,5,5)"
     fill="rgb(255,255,255)"
     stroke="rgb(0,0,0)"
     stroke-width="0.0010cm"
     stroke-linecap="round"
     stroke-linejoin="round"
     shaper:cutDepth="0.0033"
     id="path15" /><path
     d="M3.8688,4.5125 a0.15,0.15 0 1,1 0.3,0 a0.15,0.15 0 1,1 -0.3,0z"
     transform="matrix(1,0,0,-1,5,5)"
     fill="rgb(255,255,255)"
     stroke="rgb(0,0,0)"
     stroke-width="0.0010cm"
     stroke-linecap="round"
     stroke-linejoin="round"
     shaper:cutDepth="0.0033"
     id="path16" /><path
     d="M-3.67,0.165 L-1.5,0.165 -1.5,-0.165 -3.67,-0.165 -3.67,0.165z"
     transform="matrix(1,0,0,-1,5,5)"
     fill="rgb(255,255,255)"
     stroke="rgb(0,0,0)"
     stroke-width="0.0010cm"
     stroke-linecap="round"
     stroke-linejoin="round"
     shaper:cutDepth="0.0033"
     id="path17" /><path
     d="M-1.5,4.17 L-3.67,4.17 -3.67,4.5 -1.5,4.5 -1.5,4.17z"
     transform="matrix(1,0,0,-1,5,5)"
     fill="rgb(255,255,255)"
     stroke="rgb(0,0,0)"
     stroke-width="0.0010cm"
     stroke-linecap="round"
     stroke-linejoin="round"
     shaper:cutDepth="0.0033"
     id="path18" /><path
     d="M3.67,-0.165 L1.5,-0.165 1.5,0.165 3.67,0.165 3.67,-0.165z"
     transform="matrix(1,0,0,-1,5,5)"
     fill="rgb(255,255,255)"
     stroke="rgb(0,0,0)"
     stroke-width="0.0010cm"
     stroke-linecap="round"
     stroke-linejoin="round"
     shaper:cutDepth="0.0033"
     id="path19" /><path
     d="M3.67,4.5 L3.67,4.17 1.5,4.17 1.5,4.5 3.67,4.5z"
     transform="matrix(1,0,0,-1,5,5)"
     fill="rgb(255,255,255)"
     stroke="rgb(0,0,0)"
     stroke-width="0.0010cm"
     stroke-linecap="round"
     stroke-linejoin="round"
     shaper:cutDepth="0.0033"
     id="path20" /></svg>
