<?xml version="1.0" encoding="UTF-8" standalone="no"?>
<!-- Generator: Fusion 360, Shaper Origin Export Add-In, Version 1.6.10  -->

<svg
   shaper:fusionaddin="version:1.6.10"
   width="10cm"
   height="10cm"
   version="1.1"
   x="0cm"
   y="0cm"
   viewBox="0 0 10 10"
   enable-background="new 0 0 10 10"
   xml:space="preserve"
   id="svg6"
   sodipodi:docname="Middle UPS HAT E.svg"
   inkscape:version="1.4.2 (ebf0e940, 2025-05-08)"
   xmlns:inkscape="http://www.inkscape.org/namespaces/inkscape"
   xmlns:sodipodi="http://sodipodi.sourceforge.net/DTD/sodipodi-0.dtd"
   xmlns="http://www.w3.org/2000/svg"
   xmlns:svg="http://www.w3.org/2000/svg"
   xmlns:shaper="http://www.shapertools.com/namespaces/shaper"><defs
     id="defs6" /><sodipodi:namedview
     id="namedview6"
     pagecolor="#ffffff"
     bordercolor="#000000"
     borderopacity="0.25"
     inkscape:showpageshadow="2"
     inkscape:pageopacity="0.0"
     inkscape:pagecheckerboard="0"
     inkscape:deskcolor="#d1d1d1"
     inkscape:document-units="cm"
     inkscape:zoom="1.4749455"
     inkscape:cx="163.73486"
     inkscape:cy="215.26219"
     inkscape:window-width="1184"
     inkscape:window-height="662"
     inkscape:window-x="256"
     inkscape:window-y="25"
     inkscape:window-maximized="0"
     inkscape:current-layer="svg6"
     showguides="false" /><path
     d="M-5,-4.28 L-4.66,-4.28 -4.66,-1.28 -5,-1.28 -5,0.88 -3.66,0.88 -3.66,2.22 -1.5,2.22 -1.5,1.88 1.5,1.88 1.5,2.22 3.66,2.22 3.66,0.88 5,0.88 5,-1.28 4.66,-1.28 4.66,-4.28 5,-4.28 5,-6.44 3.66,-6.44 3.66,-7.78 1.5,-7.78 1.5,-7.44 -1.5,-7.44 -1.5,-7.78 -3.66,-7.78 -3.66,-6.44 -5,-6.44 -5,-4.28z"
     transform="matrix(1,0,0,-1,5,2.22)"
     fill="rgb(0,0,0)"
     shaper:cutDepth="0.0033"
     stroke-linecap="round"
     stroke-linejoin="round"
     id="path1" /><path
     d="m 6.8729167,7.84 a 0.15,0.15 0 1 0 0.3,0 0.15,0.15 0 1 0 -0.3,0 z"
     fill="#ffffff"
     stroke="#000000"
     stroke-width="0.001cm"
     stroke-linecap="round"
     stroke-linejoin="round"
     shaper:cutDepth="0.0033"
     id="path2" /><path
     d="m 0.4908333,2.84 a 0.15,0.15 0 1 0 0.29999982,0 0.15,0.15 0 1 0 -0.29999982,0 z"
     fill="#ffffff"
     stroke="#000000"
     stroke-width="0.001cm"
     stroke-linecap="round"
     stroke-linejoin="round"
     shaper:cutDepth="0.0033"
     id="path3" /><path
     d="m 6.8729167,2.84 a 0.15,0.15 0 1 0 0.3,0 0.15,0.15 0 1 0 -0.3,0 z"
     fill="#ffffff"
     stroke="#000000"
     stroke-width="0.001cm"
     stroke-linecap="round"
     stroke-linejoin="round"
     shaper:cutDepth="0.0033"
     id="path4" /><path
     d="m 0.4908333,7.84 a 0.15,0.15 0 1 0 0.29999982,0 0.15,0.15 0 1 0 -0.29999982,0 z"
     fill="#ffffff"
     stroke="#000000"
     stroke-width="0.001cm"
     stroke-linecap="round"
     stroke-linejoin="round"
     shaper:cutDepth="0.0033"
     id="path5" /><path
     d="M 0.75333755,3.036717 V 7.6364289 H 9.2524959 V 3.036717 Z"
     fill="rgb(255,255,255)"
     stroke="#000000"
     stroke-width="0.00101304cm"
     stroke-linecap="round"
     stroke-linejoin="round"
     shaper:cutDepth="0.0033"
     id="path6"
     style="fill:#ffffff" /><rect
     style="fill:#000000;stroke-width:0.0267177"
     id="rect6"
     width="0.48509431"
     height="3.3597808"
     x="0.00080656889"
     y="3.4787114" /><rect
     style="fill:#000000;stroke-width:0.0267177"
     id="rect6-9"
     width="0.48509431"
     height="3.3597808"
     x="9.5121622"
     y="3.3915441" /><rect
     style="fill:#ffffff;stroke-width:0.031389"
     id="rect1"
     width="0.345"
     height="2.1059937"
     x="0.4466702"
     y="4.3866053" /><rect
     style="fill:#ffffff;stroke-width:0.031389"
     id="rect1-9"
     width="0.345"
     height="2.1059937"
     x="9.2215004"
     y="4.3870001" /></svg>
